# xmcd
#
# Track frame offsets:
#	150
#	10410
#	23727
#	32045
#	50960
#	64450
#	75497
#	85800
#	103797
#	115260
#
# Disc length: 1668 seconds
#
# Revision: 0
# Processed by: cddbd v1.5.2PL0 Copyright (c) Steve Scherf et al.
# Submitted via: dBpowerAMP V4.0
#
DISCID=8006820a
DTITLE=Al Cherny - Fiddlin' Favourites
DYEAR=1988
DGENRE=Fiddlle Oldies
TTITLE0=Orange Blossom Special
TTITLE1=Medley. Tennessee Waltz, Fascination and Anniversary Waltz
TTITLE2=Melody Of Love
TTITLE3=Medley. Maiden's Prayer, Faded Love and San Antonio Rose
TTITLE4=Anniversary Song
TTITLE5=Bird Dance
TTITLE6=Medley. Shannon Waltz and Let Me Call You Sweetheart
TTITLE7=Medley. Alabama Jubilee, Down Yonder and Turkey In The Straw
TTITLE8=Medley. Rubber Dolly and Maple Sugar
TTITLE9=Heel and Toe Polka
EXTD=
EXTT0=
EXTT1=
EXTT2=
EXTT3=
EXTT4=
EXTT5=
EXTT6=
EXTT7=
EXTT8=
EXTT9=
PLAYORDER=
